<?xml version="1.0" encoding="UTF-8"?>
<!DOCTYPE svg PUBLIC "-//W3C//DTD SVG 1.1//EN" "http://www.w3.org/Graphics/SVG/1.1/DTD/svg11.dtd">
<svg xmlns="http://www.w3.org/2000/svg" version="1.1" width="512px" height="512px" style="shape-rendering:geometricPrecision; text-rendering:geometricPrecision; image-rendering:optimizeQuality; fill-rule:evenodd; clip-rule:evenodd" xmlns:xlink="http://www.w3.org/1999/xlink">
<g><path style="opacity:0.986" fill="#000000" d="M 361.5,31.5 C 397.502,31.3333 433.502,31.5 469.5,32C 474,33.8333 477.167,37 479,41.5C 479.667,77.5 479.667,113.5 479,149.5C 477.167,154 474,157.167 469.5,159C 433.5,159.667 397.5,159.667 361.5,159C 357,157.167 353.833,154 352,149.5C 351.5,136.838 351.333,124.171 351.5,111.5C 337.496,111.333 323.496,111.5 309.5,112C 292.321,124.423 275.321,137.09 258.5,150C 276.677,159.589 295.011,168.922 313.5,178C 316.106,179.938 317.939,182.438 319,185.5C 319.5,203.497 319.667,221.497 319.5,239.5C 330.167,239.5 340.833,239.5 351.5,239.5C 351.333,226.829 351.5,214.162 352,201.5C 353.833,197 357,193.833 361.5,192C 397.5,191.333 433.5,191.333 469.5,192C 474,193.833 477.167,197 479,201.5C 479.667,237.5 479.667,273.5 479,309.5C 477.167,314 474,317.167 469.5,319C 433.5,319.667 397.5,319.667 361.5,319C 357,317.167 353.833,314 352,309.5C 351.5,296.838 351.333,284.171 351.5,271.5C 340.833,271.5 330.167,271.5 319.5,271.5C 319.667,289.503 319.5,307.503 319,325.5C 317.939,328.562 316.106,331.062 313.5,333C 295.011,342.078 276.677,351.411 258.5,361C 275.321,373.91 292.321,386.577 309.5,399C 323.496,399.5 337.496,399.667 351.5,399.5C 351.333,386.829 351.5,374.162 352,361.5C 353.833,357 357,353.833 361.5,352C 397.5,351.333 433.5,351.333 469.5,352C 474,353.833 477.167,357 479,361.5C 479.667,397.5 479.667,433.5 479,469.5C 477.167,474 474,477.167 469.5,479C 433.5,479.667 397.5,479.667 361.5,479C 357,477.167 353.833,474 352,469.5C 351.5,456.838 351.333,444.171 351.5,431.5C 333.497,431.667 315.497,431.5 297.5,431C 273.026,413.36 248.693,395.526 224.5,377.5C 210.167,384.667 195.833,391.833 181.5,399C 177.5,399.667 173.5,399.667 169.5,399C 125.5,377 81.5,355 37.5,333C 34.8941,331.062 33.0608,328.562 32,325.5C 31.3333,278.833 31.3333,232.167 32,185.5C 33.0608,182.438 34.8941,179.938 37.5,178C 81.5,156 125.5,134 169.5,112C 173.5,111.333 177.5,111.333 181.5,112C 195.833,119.167 210.167,126.333 224.5,133.5C 248.693,115.474 273.026,97.6402 297.5,80C 315.497,79.5001 333.497,79.3334 351.5,79.5C 351.333,66.8289 351.5,54.1623 352,41.5C 354.022,36.98 357.189,33.6467 361.5,31.5 Z M 383.5,63.5 C 404.833,63.5 426.167,63.5 447.5,63.5C 447.5,84.8333 447.5,106.167 447.5,127.5C 426.167,127.5 404.833,127.5 383.5,127.5C 383.5,106.167 383.5,84.8333 383.5,63.5 Z M 173.5,146.5 C 204.64,160.403 235.306,175.403 265.5,191.5C 236.322,206.589 206.989,221.422 177.5,236C 176.167,236.667 174.833,236.667 173.5,236C 144.011,221.422 114.678,206.589 85.5,191.5C 114.894,176.47 144.228,161.47 173.5,146.5 Z M 63.5,218.5 C 95.268,233.884 126.935,249.551 158.5,265.5C 159.833,295.833 159.833,326.167 158.5,356.5C 127.167,340.833 95.8333,325.167 64.5,309.5C 63.5002,279.174 63.1668,248.841 63.5,218.5 Z M 285.5,218.5 C 286.833,233.318 287.499,248.485 287.5,264C 287.167,279.167 286.833,294.333 286.5,309.5C 255.167,325.167 223.833,340.833 192.5,356.5C 191.167,326.167 191.167,295.833 192.5,265.5C 223.716,250.059 254.716,234.392 285.5,218.5 Z M 383.5,223.5 C 404.833,223.5 426.167,223.5 447.5,223.5C 447.5,244.833 447.5,266.167 447.5,287.5C 426.167,287.5 404.833,287.5 383.5,287.5C 383.5,266.167 383.5,244.833 383.5,223.5 Z M 383.5,383.5 C 404.833,383.5 426.167,383.5 447.5,383.5C 447.5,404.833 447.5,426.167 447.5,447.5C 426.167,447.5 404.833,447.5 383.5,447.5C 383.5,426.167 383.5,404.833 383.5,383.5 Z"/></g>
<g><path style="opacity:0.937" fill="#000000" d="M 409.5,79.5 C 428.778,78.6097 435.278,87.2764 429,105.5C 422.055,112.069 414.222,113.236 405.5,109C 398.931,102.055 397.764,94.2221 402,85.5C 404.114,82.8792 406.614,80.8792 409.5,79.5 Z"/></g>
<g><path style="opacity:0.937" fill="#000000" d="M 409.5,239.5 C 428.778,238.61 435.278,247.276 429,265.5C 422.055,272.069 414.222,273.236 405.5,269C 398.931,262.055 397.764,254.222 402,245.5C 404.114,242.879 406.614,240.879 409.5,239.5 Z"/></g>
<g><path style="opacity:0.937" fill="#000000" d="M 409.5,399.5 C 428.778,398.61 435.278,407.276 429,425.5C 422.055,432.069 414.222,433.236 405.5,429C 398.931,422.055 397.764,414.222 402,405.5C 404.114,402.879 406.614,400.879 409.5,399.5 Z"/></g>
</svg>
