<?xml version="1.0" encoding="UTF-8"?>
<!DOCTYPE svg PUBLIC "-//W3C//DTD SVG 1.1//EN" "http://www.w3.org/Graphics/SVG/1.1/DTD/svg11.dtd">
<svg xmlns="http://www.w3.org/2000/svg" version="1.1" width="512px" height="512px" style="shape-rendering:geometricPrecision; text-rendering:geometricPrecision; image-rendering:optimizeQuality; fill-rule:evenodd; clip-rule:evenodd" xmlns:xlink="http://www.w3.org/1999/xlink">
<g><path style="opacity:0.98" fill="#000000" d="M 377.5,31.5 C 383.929,30.6977 389.929,31.8644 395.5,35C 420.334,50.2516 445.334,65.2516 470.5,80C 474.388,82.2215 477.221,85.3882 479,89.5C 479.667,120.167 479.667,150.833 479,181.5C 477.221,185.612 474.388,188.778 470.5,191C 443.665,207.252 416.665,223.252 389.5,239C 385.5,239.667 381.5,239.667 377.5,239C 349.5,222.333 321.5,205.667 293.5,189C 290.894,187.062 289.061,184.562 288,181.5C 287.5,174.174 287.334,166.841 287.5,159.5C 282.167,159.5 276.833,159.5 271.5,159.5C 271.5,170.167 271.5,180.833 271.5,191.5C 277.023,191.178 281.523,193.178 285,197.5C 289.136,208.742 292.97,220.076 296.5,231.5C 303.415,234.435 310.082,237.768 316.5,241.5C 325.833,239 335.167,236.5 344.5,234C 351.523,232.354 357.689,233.854 363,238.5C 369.918,249.334 376.585,260.334 383,271.5C 384.091,277.097 383.424,282.43 381,287.5C 373,294.833 365,302.167 357,309.5C 357.786,315.807 357.619,322.14 356.5,328.5C 364.49,336.322 372.656,343.989 381,351.5C 383.424,356.57 384.091,361.903 383,367.5C 376.585,378.666 369.918,389.666 363,400.5C 357.689,405.146 351.523,406.646 344.5,405C 337.208,402.503 329.875,401.003 322.5,400.5C 324.833,405.167 327.167,409.833 329.5,414.5C 347.488,415.5 365.488,415.833 383.5,415.5C 383.334,408.159 383.5,400.826 384,393.5C 385.833,389 389,385.833 393.5,384C 418.833,383.333 444.167,383.333 469.5,384C 474,385.833 477.167,389 479,393.5C 479.667,418.833 479.667,444.167 479,469.5C 477.167,474 474,477.167 469.5,479C 444.167,479.667 418.833,479.667 393.5,479C 389,477.167 385.833,474 384,469.5C 383.5,462.174 383.334,454.841 383.5,447.5C 360.164,447.667 336.831,447.5 313.5,447C 310.438,445.939 307.938,444.106 306,441.5C 302.088,433.343 297.922,425.343 293.5,417.5C 290.768,425.528 287.935,433.528 285,441.5C 283.062,444.106 280.562,445.939 277.5,447C 262.833,447.667 248.167,447.667 233.5,447C 230.438,445.939 227.938,444.106 226,441.5C 223.065,433.528 220.232,425.528 217.5,417.5C 213.078,425.343 208.912,433.343 205,441.5C 203.062,444.106 200.562,445.939 197.5,447C 174.169,447.5 150.836,447.667 127.5,447.5C 127.666,454.841 127.5,462.174 127,469.5C 125.167,474 122,477.167 117.5,479C 92.1667,479.667 66.8333,479.667 41.5,479C 37,477.167 33.8333,474 32,469.5C 31.3333,444.167 31.3333,418.833 32,393.5C 33.8333,389 37,385.833 41.5,384C 66.8333,383.333 92.1667,383.333 117.5,384C 122,385.833 125.167,389 127,393.5C 127.5,400.826 127.666,408.159 127.5,415.5C 145.512,415.833 163.512,415.5 181.5,414.5C 183.833,409.833 186.167,405.167 188.5,400.5C 181.125,401.003 173.792,402.503 166.5,405C 159.477,406.646 153.311,405.146 148,400.5C 141.082,389.666 134.415,378.666 128,367.5C 126.909,361.903 127.576,356.57 130,351.5C 138.344,343.989 146.51,336.322 154.5,328.5C 153.167,322.5 153.167,316.5 154.5,310.5C 146.51,302.678 138.344,295.011 130,287.5C 127.576,282.43 126.909,277.097 128,271.5C 134.415,260.334 141.082,249.334 148,238.5C 153.311,233.854 159.477,232.354 166.5,234C 173.792,236.497 181.125,237.997 188.5,238.5C 186.167,233.833 183.833,229.167 181.5,224.5C 163.512,223.5 145.512,223.167 127.5,223.5C 127.666,230.841 127.5,238.174 127,245.5C 125.167,250 122,253.167 117.5,255C 92.1667,255.667 66.8333,255.667 41.5,255C 37,253.167 33.8333,250 32,245.5C 31.3333,220.167 31.3333,194.833 32,169.5C 33.8333,165 37,161.833 41.5,160C 66.8333,159.333 92.1667,159.333 117.5,160C 122,161.833 125.167,165 127,169.5C 127.5,176.826 127.666,184.159 127.5,191.5C 150.836,191.333 174.169,191.5 197.5,192C 200.562,193.061 203.062,194.894 205,197.5C 208.912,205.657 213.078,213.657 217.5,221.5C 220.232,213.472 223.065,205.472 226,197.5C 229.477,193.178 233.977,191.178 239.5,191.5C 239.333,173.497 239.5,155.497 240,137.5C 241.833,133 245,129.833 249.5,128C 262.162,127.5 274.829,127.333 287.5,127.5C 287.333,114.829 287.5,102.162 288,89.5C 289.061,86.4384 290.894,83.9384 293.5,82C 321.729,65.3923 349.729,48.559 377.5,31.5 Z M 381.5,67.5 C 383.655,67.372 385.655,67.872 387.5,69C 401.833,77.8333 416.167,86.6667 430.5,95.5C 416.167,104.333 401.833,113.167 387.5,122C 385.635,123.301 383.635,123.635 381.5,123C 366.5,113.833 351.5,104.667 336.5,95.5C 351.732,86.3921 366.732,77.0587 381.5,67.5 Z M 319.5,124.5 C 335.448,133.941 351.281,143.608 367,153.5C 367.667,167.167 367.667,180.833 367,194.5C 351.333,184.833 335.667,175.167 320,165.5C 319.5,151.837 319.333,138.171 319.5,124.5 Z M 446.5,124.5 C 447.661,137.994 447.827,151.66 447,165.5C 431.333,175.167 415.667,184.833 400,194.5C 399.333,180.833 399.333,167.167 400,153.5C 415.648,143.934 431.148,134.267 446.5,124.5 Z M 63.5,191.5 C 74.1667,191.5 84.8333,191.5 95.5,191.5C 95.5,202.167 95.5,212.833 95.5,223.5C 84.8333,223.5 74.1667,223.5 63.5,223.5C 63.5,212.833 63.5,202.167 63.5,191.5 Z M 251.5,223.5 C 254.167,223.5 256.833,223.5 259.5,223.5C 261.708,234.624 265.208,245.291 270,255.5C 277.848,259.174 285.682,263.007 293.5,267C 297.919,270.425 302.585,273.425 307.5,276C 310.167,276.667 312.833,276.667 315.5,276C 324.77,273.347 334.103,271.347 343.5,270C 344.43,271.194 345.097,272.527 345.5,274C 339.367,280.464 332.867,286.631 326,292.5C 323.928,295.883 322.761,299.55 322.5,303.5C 323.385,308.807 324.051,314.141 324.5,319.5C 323.445,326.151 322.945,332.817 323,339.5C 323.725,341.949 324.725,344.283 326,346.5C 332.333,352.167 338.667,357.833 345,363.5C 345.652,366.869 344.319,368.869 341,369.5C 332.814,367.412 324.647,365.245 316.5,363C 313.5,362.333 310.5,362.333 307.5,363C 297.085,370.543 285.752,376.543 273.5,381C 270.527,382.765 268.36,385.265 267,388.5C 264.027,397.393 261.527,406.393 259.5,415.5C 256.833,415.5 254.167,415.5 251.5,415.5C 249.473,406.393 246.973,397.393 244,388.5C 242.623,386.246 241.123,384.08 239.5,382C 226.582,377.21 214.582,370.877 203.5,363C 200.5,362.333 197.5,362.333 194.5,363C 185.606,365.809 176.606,367.809 167.5,369C 166.57,367.806 165.903,366.473 165.5,365C 171.633,358.536 178.133,352.369 185,346.5C 187.072,343.117 188.239,339.45 188.5,335.5C 187.615,330.193 186.949,324.859 186.5,319.5C 187.555,312.849 188.055,306.183 188,299.5C 187.275,297.051 186.275,294.717 185,292.5C 178.667,286.833 172.333,281.167 166,275.5C 165.348,272.131 166.681,270.131 170,269.5C 178.186,271.588 186.353,273.755 194.5,276C 197.5,276.667 200.5,276.667 203.5,276C 214.582,268.123 226.582,261.79 239.5,257C 241.123,254.92 242.623,252.754 244,250.5C 246.973,241.607 249.473,232.607 251.5,223.5 Z M 250.5,304.5 C 267.765,304.257 273.598,312.257 268,328.5C 261.749,335.011 254.582,336.177 246.5,332C 239.989,325.749 238.823,318.582 243,310.5C 245.114,307.879 247.614,305.879 250.5,304.5 Z M 63.5,415.5 C 74.1667,415.5 84.8333,415.5 95.5,415.5C 95.5,426.167 95.5,436.833 95.5,447.5C 84.8333,447.5 74.1667,447.5 63.5,447.5C 63.5,436.833 63.5,426.167 63.5,415.5 Z M 415.5,415.5 C 426.167,415.5 436.833,415.5 447.5,415.5C 447.5,426.167 447.5,436.833 447.5,447.5C 436.833,447.5 426.167,447.5 415.5,447.5C 415.5,436.833 415.5,426.167 415.5,415.5 Z"/></g>
<g><path style="opacity:0.963" fill="#000000" d="M 245.5,271.5 C 275.16,268.564 294.326,281.231 303,309.5C 306.421,339.18 293.921,358.346 265.5,367C 235.82,370.421 216.654,357.921 208,329.5C 204.699,299.735 217.199,280.402 245.5,271.5 Z M 250.5,304.5 C 247.614,305.879 245.114,307.879 243,310.5C 238.823,318.582 239.989,325.749 246.5,332C 254.582,336.177 261.749,335.011 268,328.5C 273.598,312.257 267.765,304.257 250.5,304.5 Z"/></g>
</svg>
