<?xml version="1.0" encoding="UTF-8"?>
<!DOCTYPE svg PUBLIC "-//W3C//DTD SVG 1.1//EN" "http://www.w3.org/Graphics/SVG/1.1/DTD/svg11.dtd">
<svg xmlns="http://www.w3.org/2000/svg" version="1.1" width="512px" height="512px" style="shape-rendering:geometricPrecision; text-rendering:geometricPrecision; image-rendering:optimizeQuality; fill-rule:evenodd; clip-rule:evenodd" xmlns:xlink="http://www.w3.org/1999/xlink">
<g><path style="opacity:0.969" fill="#000000" d="M 237.5,31.5 C 282.875,28.6833 324.208,40.1833 361.5,66C 367.167,71.3189 369.001,77.8189 367,85.5C 365.939,88.5616 364.106,91.0616 361.5,93C 295.108,136.786 227.441,138.786 158.5,99C 154.049,96.2171 149.883,93.0504 146,89.5C 142.667,82.8333 142.667,76.1667 146,69.5C 164.797,55.1845 185.63,44.6845 208.5,38C 218.195,35.3227 227.862,33.156 237.5,31.5 Z M 248.5,48.5 C 277.274,48.1058 289.441,62.1058 285,90.5C 276.619,107.604 263.119,113.771 244.5,109C 224.665,98.5186 219.498,83.0186 229,62.5C 234.012,55.6391 240.512,50.9724 248.5,48.5 Z"/></g>
<g><path style="opacity:0.937" fill="#000000" d="M 249.5,63.5 C 268.778,62.6097 275.278,71.2764 269,89.5C 262.055,96.0693 254.222,97.2359 245.5,93C 238.931,86.0554 237.764,78.2221 242,69.5C 244.114,66.8792 246.614,64.8792 249.5,63.5 Z"/></g>
<g><path style="opacity:0.982" fill="#000000" d="M 41.5,111.5 C 66.8355,111.333 92.1689,111.5 117.5,112C 122,113.833 125.167,117 127,121.5C 127.5,128.826 127.666,136.159 127.5,143.5C 140.171,143.333 152.838,143.5 165.5,144C 177.103,153.601 188.103,163.934 198.5,175C 190,182.167 182.167,190 175,198.5C 167.5,191 160,183.5 152.5,176C 144.173,175.5 135.84,175.334 127.5,175.5C 127.666,182.841 127.5,190.174 127,197.5C 125.167,202 122,205.167 117.5,207C 92.1667,207.667 66.8333,207.667 41.5,207C 37,205.167 33.8333,202 32,197.5C 31.3333,172.167 31.3333,146.833 32,121.5C 34.0223,116.98 37.189,113.647 41.5,111.5 Z M 74.5,144.5 C 91.7649,144.257 97.5982,152.257 92,168.5C 85.7488,175.011 78.5821,176.177 70.5,172C 63.9893,165.749 62.8227,158.582 67,150.5C 69.1141,147.879 71.6141,145.879 74.5,144.5 Z"/></g>
<g><path style="opacity:0.97" fill="#000000" d="M 271.5,159.5 C 328.677,155.335 371.843,177.668 401,226.5C 422.208,270.4 420.708,313.567 396.5,356C 399.785,360.288 403.452,364.288 407.5,368C 412.117,367.524 416.783,367.524 421.5,368C 439.968,384.135 457.468,401.301 474,419.5C 480.124,431.378 481.124,443.711 477,456.5C 467.461,475.019 452.294,482.519 431.5,479C 425.609,477.388 420.275,474.721 415.5,471C 400.333,455.833 385.167,440.667 370,425.5C 369.333,424.167 368.667,422.833 368,421.5C 367.524,416.783 367.524,412.117 368,407.5C 364.5,404 361,400.5 357.5,397C 356.5,396.333 355.5,396.333 354.5,397C 324.982,414.695 293.315,420.028 259.5,413C 203.299,397.464 170.132,360.964 160,303.5C 155.792,241.054 181.626,196.22 237.5,169C 248.611,164.559 259.944,161.393 271.5,159.5 Z M 286.5,191.5 C 333.793,194.633 364.96,218.633 380,263.5C 388.709,306.375 375.543,340.875 340.5,367C 305.176,388.992 269.842,388.992 234.5,367C 196.507,338.018 184.34,300.518 198,254.5C 214.911,215.748 244.411,194.748 286.5,191.5 Z"/></g>
<g><path style="opacity:0.965" fill="#000000" d="M 281.5,223.5 C 285.514,223.334 289.514,223.501 293.5,224C 313.028,234.262 332.361,244.762 351.5,255.5C 330.989,266.256 310.323,276.756 289.5,287C 288.167,287.667 286.833,287.667 285.5,287C 264.677,276.756 244.011,266.256 223.5,255.5C 242.895,244.805 262.229,234.139 281.5,223.5 Z"/></g>
<g><path style="opacity:0.986" fill="#000000" d="M 41.5,239.5 C 66.8355,239.333 92.1689,239.5 117.5,240C 122,241.833 125.167,245 127,249.5C 127.5,256.826 127.666,264.159 127.5,271.5C 132.833,271.5 138.167,271.5 143.5,271.5C 143.5,282.167 143.5,292.833 143.5,303.5C 138.167,303.5 132.833,303.5 127.5,303.5C 127.666,310.841 127.5,318.174 127,325.5C 125.167,330 122,333.167 117.5,335C 92.1667,335.667 66.8333,335.667 41.5,335C 37,333.167 33.8333,330 32,325.5C 31.3333,300.167 31.3333,274.833 32,249.5C 34.0223,244.98 37.189,241.647 41.5,239.5 Z M 74.5,272.5 C 91.7649,272.257 97.5982,280.257 92,296.5C 85.7488,303.011 78.5821,304.177 70.5,300C 63.9893,293.749 62.8227,286.582 67,278.5C 69.1141,275.879 71.6141,273.879 74.5,272.5 Z"/></g>
<g><path style="opacity:0.96" fill="#000000" d="M 223.5,271.5 C 242.423,280.295 261.09,289.628 279.5,299.5C 280.5,322.157 280.833,344.824 280.5,367.5C 277.984,367.245 275.65,366.411 273.5,365C 259.5,357 245.5,349 231.5,341C 228.667,339.5 226.5,337.333 225,334.5C 223.523,313.592 223.023,292.592 223.5,271.5 Z"/></g>
<g><path style="opacity:0.964" fill="#000000" d="M 349.5,271.5 C 350.5,271.5 351.5,271.5 352.5,271.5C 352.667,289.836 352.5,308.17 352,326.5C 351.66,332.83 348.827,337.664 343.5,341C 327.833,349.833 312.167,358.667 296.5,367.5C 295.334,344.841 295.167,322.174 296,299.5C 313.816,290.01 331.649,280.677 349.5,271.5 Z"/></g>
<g><path style="opacity:0.982" fill="#000000" d="M 41.5,367.5 C 66.8355,367.333 92.1689,367.5 117.5,368C 122,369.833 125.167,373 127,377.5C 127.5,384.826 127.666,392.159 127.5,399.5C 135.84,399.666 144.173,399.5 152.5,399C 160,391.5 167.5,384 175,376.5C 182.167,385 190,392.833 198.5,400C 188.103,411.066 177.103,421.399 165.5,431C 152.838,431.5 140.171,431.667 127.5,431.5C 127.666,438.841 127.5,446.174 127,453.5C 125.167,458 122,461.167 117.5,463C 92.1667,463.667 66.8333,463.667 41.5,463C 37,461.167 33.8333,458 32,453.5C 31.3333,428.167 31.3333,402.833 32,377.5C 34.0223,372.98 37.189,369.647 41.5,367.5 Z M 74.5,400.5 C 91.7649,400.257 97.5982,408.257 92,424.5C 85.7488,431.011 78.5821,432.177 70.5,428C 63.9893,421.749 62.8227,414.582 67,406.5C 69.1141,403.879 71.6141,401.879 74.5,400.5 Z"/></g>
</svg>
