<?xml version="1.0" encoding="UTF-8"?>
<!DOCTYPE svg PUBLIC "-//W3C//DTD SVG 1.1//EN" "http://www.w3.org/Graphics/SVG/1.1/DTD/svg11.dtd">
<svg xmlns="http://www.w3.org/2000/svg" version="1.1" width="512px" height="512px" style="shape-rendering:geometricPrecision; text-rendering:geometricPrecision; image-rendering:optimizeQuality; fill-rule:evenodd; clip-rule:evenodd" xmlns:xlink="http://www.w3.org/1999/xlink">
<g><path style="opacity:0.997" fill="#000000" d="M 41.5,31.5 C 184.167,31.3333 326.834,31.5 469.5,32C 474,33.8333 477.167,37 479,41.5C 479.667,184.167 479.667,326.833 479,469.5C 477.167,474 474,477.167 469.5,479C 326.833,479.667 184.167,479.667 41.5,479C 37,477.167 33.8333,474 32,469.5C 31.3333,326.833 31.3333,184.167 32,41.5C 34.0223,36.98 37.189,33.6467 41.5,31.5 Z M 63.5,63.5 C 107.838,63.1667 152.172,63.5001 196.5,64.5C 186.167,85.1667 175.833,105.833 165.5,126.5C 131.507,127.5 97.5065,127.833 63.5,127.5C 63.5,106.167 63.5,84.8333 63.5,63.5 Z M 233.5,63.5 C 242.525,63.1685 251.525,63.5018 260.5,64.5C 250.167,85.1667 239.833,105.833 229.5,126.5C 220.5,127.833 211.5,127.833 202.5,126.5C 213.116,105.601 223.45,84.6011 233.5,63.5 Z M 297.5,63.5 C 347.5,63.5 397.5,63.5 447.5,63.5C 447.5,84.8333 447.5,106.167 447.5,127.5C 387.163,127.833 326.83,127.5 266.5,126.5C 277.116,105.601 287.45,84.6011 297.5,63.5 Z M 63.5,159.5 C 191.5,159.5 319.5,159.5 447.5,159.5C 447.5,255.5 447.5,351.5 447.5,447.5C 319.5,447.5 191.5,447.5 63.5,447.5C 63.5,351.5 63.5,255.5 63.5,159.5 Z M 159.5,207.5 C 223.501,207.333 287.501,207.5 351.5,208C 367.181,209.411 377.348,217.577 382,232.5C 383.593,256.134 383.927,279.801 383,303.5C 381.589,319.181 373.423,329.348 358.5,334C 327.53,335.279 296.53,335.946 265.5,336C 249.761,347.07 234.594,358.903 220,371.5C 221.46,364.97 222.626,358.303 223.5,351.5C 223.82,343.973 220.487,338.807 213.5,336C 195.5,335.667 177.5,335.333 159.5,335C 140.333,333.167 129.833,322.667 128,303.5C 127.333,282.167 127.333,260.833 128,239.5C 130.011,220.323 140.511,209.657 159.5,207.5 Z"/></g>
<g><path style="opacity:0.937" fill="#000000" d="M 89.5,79.5 C 108.778,78.6097 115.278,87.2764 109,105.5C 102.055,112.069 94.2221,113.236 85.5,109C 78.9307,102.055 77.7641,94.2221 82,85.5C 84.1141,82.8792 86.6141,80.8792 89.5,79.5 Z"/></g>
<g><path style="opacity:0.937" fill="#000000" d="M 137.5,79.5 C 156.778,78.6097 163.278,87.2764 157,105.5C 150.055,112.069 142.222,113.236 133.5,109C 126.931,102.055 125.764,94.2221 130,85.5C 132.114,82.8792 134.614,80.8792 137.5,79.5 Z"/></g>
<g><path style="opacity:0.982" fill="#000000" d="M 147.5,175.5 C 219.501,175.333 291.501,175.5 363.5,176C 391.333,182.5 408.5,199.667 415,227.5C 415.667,256.833 415.667,286.167 415,315.5C 409.119,341.714 393.285,358.547 367.5,366C 337.54,367.294 307.54,367.961 277.5,368C 252.167,388.333 226.833,408.667 201.5,429C 194.833,432.333 188.167,432.333 181.5,429C 177.181,425.529 175.181,421.029 175.5,415.5C 178.376,399.66 182.043,383.993 186.5,368.5C 173.846,367.667 161.18,367.167 148.5,367C 120.117,360.951 102.617,343.784 96,315.5C 95.3333,286.167 95.3333,256.833 96,227.5C 102.681,199.653 119.848,182.319 147.5,175.5 Z M 159.5,207.5 C 140.511,209.657 130.011,220.323 128,239.5C 127.333,260.833 127.333,282.167 128,303.5C 129.833,322.667 140.333,333.167 159.5,335C 177.5,335.333 195.5,335.667 213.5,336C 220.487,338.807 223.82,343.973 223.5,351.5C 222.626,358.303 221.46,364.97 220,371.5C 234.594,358.903 249.761,347.07 265.5,336C 296.53,335.946 327.53,335.279 358.5,334C 373.423,329.348 381.589,319.181 383,303.5C 383.927,279.801 383.593,256.134 382,232.5C 377.348,217.577 367.181,209.411 351.5,208C 287.501,207.5 223.501,207.333 159.5,207.5 Z"/></g>
<g><path style="opacity:0.958" fill="#000000" d="M 185.5,223.5 C 204.778,222.61 211.278,231.276 205,249.5C 197.652,256.681 190.485,264.014 183.5,271.5C 190.485,278.986 197.652,286.319 205,293.5C 211.294,311.867 204.794,320.367 185.5,319C 171.728,307.231 158.562,294.731 146,281.5C 142.667,274.833 142.667,268.167 146,261.5C 158.759,248.238 171.925,235.572 185.5,223.5 Z"/></g>
<g><path style="opacity:0.959" fill="#000000" d="M 265.5,223.5 C 281.985,221.817 289.151,229.151 287,245.5C 275.667,268.167 264.333,290.833 253,313.5C 246.055,320.069 238.222,321.236 229.5,317C 223.833,311.681 221.999,305.181 224,297.5C 235.333,274.833 246.667,252.167 258,229.5C 260.114,226.879 262.614,224.879 265.5,223.5 Z"/></g>
<g><path style="opacity:0.958" fill="#000000" d="M 313.5,223.5 C 319.105,222.908 324.439,223.741 329.5,226C 342.731,238.562 355.231,251.728 367,265.5C 368.091,271.097 367.424,276.43 365,281.5C 352.438,294.731 339.272,307.231 325.5,319C 306.206,320.367 299.706,311.867 306,293.5C 313.348,286.319 320.515,278.986 327.5,271.5C 320.515,264.014 313.348,256.681 306,249.5C 300.677,238.374 303.177,229.707 313.5,223.5 Z"/></g>
</svg>
